# xmcd CD database file
#
# Track frame offsets:
#	150
#	19124
#	38924
#	60867
#	83982
#	106416
#	128741
#	146794
#	168611
#	191743
#	210679
#	232272
#
# Disc length: 3360 seconds
#
# Revision: 0
# Processed by: cddbd v1.4PL0 Copyright (c) Steve Scherf et al.
# Submitted via: CDex 1.50beta9
#
DISCID=ab0d1e0c
DTITLE=Various Artist - South Beach Salsa
DYEAR=2001
DGENRE=Salsa
TTITLE0=Raulin - Barranquillero Arrebatao
TTITLE1=Jorge Cabrera - Sueltala
TTITLE2=Jorge Cabrera - Sueno Infeliz
TTITLE3=Arabella - Fui Tu Caceria
TTITLE4=Jorge Cabrera - Mata Que Dios Perdona
TTITLE5=Henry Garcia y Ramon Orlando - Nacio Varon
TTITLE6=Jorge Cabrera y Su Tres - Esa Negra
TTITLE7=Raulin - Mi Viejita
TTITLE8=Los Brillanticos - Pa' Curubande Yo Voy
TTITLE9=Raulin - El Borracho
TTITLE10=Raulin - Que No Se Rompa La Noche
TTITLE11=Cuco Valoy - Juliana
EXTD=YEAR: 2001
EXTT0=
EXTT1=
EXTT2=
EXTT3=
EXTT4=
EXTT5=
EXTT6=
EXTT7=
EXTT8=
EXTT9=
EXTT10=
EXTT11=
PLAYORDER=
